ffmpeg started on 2016-12-08 at 11:32:40
Report written to "Output/x264/results/ffmpeg/sintelveryslow1500k.log"
Command line:
Tools/ffmpeg/ffmpeg -benchmark -y -i Input/y4m/sintel.y4m -c:v libx264 -preset veryslow -b:v 1500k -an Output/x264/encoded/sintelveryslow1500k.mkv
ffmpeg version N-82227-gdb23fde Copyright (c) 2000-2016 the FFmpeg developers
  built with gcc 5.4.0 (Ubuntu 5.4.0-6ubuntu1~16.04.2) 20160609
  configuration: --prefix=/home/jaroslav/ffmpeg_build --pkg-config-flags=--static --extra-cflags=-I/home/jaroslav/ffmpeg_build/include --extra-ldflags=-L/home/jaroslav/ffmpeg_build/lib --bindir=/home/jaroslav/bin --enable-gpl --enable-libass --enable-libfdk-aac --enable-libfreetype --enable-libmp3lame --enable-libopus --enable-libtheora --enable-libvorbis --enable-libvpx --enable-libx264 --enable-libx265 --enable-nvenc --enable-libmfx --enable-libxvid --enable-libgsm --enable-libopencore-amrnb --enable-version3 --enable-nonfree
  libavutil      55. 35.100 / 55. 35.100
  libavcodec     57. 66.101 / 57. 66.101
  libavformat    57. 57.100 / 57. 57.100
  libavdevice    57.  2.100 / 57.  2.100
  libavfilter     6. 66.100 /  6. 66.100
  libswscale      4.  3.100 /  4.  3.100
  libswresample   2.  4.100 /  2.  4.100
  libpostproc    54.  2.100 / 54.  2.100
Input #0, yuv4mpegpipe, from 'Input/y4m/sintel.y4m':
  Duration: 00:00:20.83, start: 0.000000, bitrate: 2057307 kb/s
    Stream #0:0: Video: rawvideo (I420 / 0x30323449), yuv420p(progressive), 4096x1744, SAR 1:1 DAR 256:109, 24 fps, 24 tbr, 24 tbn, 24 tbc
[libx264 @ 0x3f6d1c0] using SAR=1/1
[libx264 @ 0x3f6d1c0] DPB size (16 frames, 446464 mbs) > level limit (6 frames, 184320 mbs)
[libx264 @ 0x3f6d1c0] using cpu capabilities: MMX2 SSE2Fast SSSE3 SSE4.2 AVX FMA3 AVX2 LZCNT BMI2
[libx264 @ 0x3f6d1c0] profile High, level 5.2
[libx264 @ 0x3f6d1c0] 264 - core 148 - H.264/MPEG-4 AVC codec - Copyleft 2003-2016 - http://www.videolan.org/x264.html - options: cabac=1 ref=16 deblock=1:0:0 analyse=0x3:0x133 me=umh subme=10 psy=1 psy_rd=1.00:0.00 mixed_ref=1 me_range=24 chroma_me=1 trellis=2 8x8dct=1 cqm=0 deadzone=21,11 fast_pskip=1 chroma_qp_offset=-2 threads=6 lookahead_threads=1 sliced_threads=0 nr=0 decimate=1 interlaced=0 bluray_compat=0 constrained_intra=0 bframes=8 b_pyramid=2 b_adapt=2 b_bias=0 direct=3 weightb=1 open_gop=0 weightp=2 keyint=250 keyint_min=24 scenecut=40 intra_refresh=0 rc_lookahead=60 rc=abr mbtree=1 bitrate=1500 ratetol=1.0 qcomp=0.60 qpmin=0 qpmax=69 qpstep=4 ip_ratio=1.40 aq=1:1.00
Output #0, matroska, to 'Output/x264/encoded/sintelveryslow1500k.mkv':
  Metadata:
    encoder         : Lavf57.57.100
    Stream #0:0: Video: h264 (libx264) (H264 / 0x34363248), yuv420p, 4096x1744 [SAR 1:1 DAR 256:109], q=-1--1, 1500 kb/s, 24 fps, 1k tbn, 24 tbc
    Metadata:
      encoder         : Lavc57.66.101 libx264
    Side data:
      cpb: bitrate max/min/avg: 0/0/1500000 buffer size: 0 vbv_delay: -1
Stream mapping:
  Stream #0:0 -> #0:0 (rawvideo (native) -> h264 (libx264))
Press [q] to stop, [?] for help
frame=   11 fps=0.0 q=0.0 size=       0kB time=00:00:00.00 bitrate=N/A speed=   0x    frame=   18 fps= 17 q=0.0 size=       0kB time=00:00:00.00 bitrate=N/A speed=   0x    frame=   21 fps= 11 q=0.0 size=       0kB time=00:00:00.00 bitrate=N/A speed=   0x    frame=   22 fps=8.7 q=0.0 size=       0kB time=00:00:00.00 bitrate=N/A speed=   0x    frame=   23 fps=7.2 q=0.0 size=       0kB time=00:00:00.00 bitrate=N/A speed=   0x    frame=   24 fps=6.1 q=0.0 size=       0kB time=00:00:00.00 bitrate=N/A speed=   0x    frame=   25 fps=5.5 q=0.0 size=       0kB time=00:00:00.00 bitrate=N/A speed=   0x    frame=   26 fps=3.2 q=0.0 size=       0kB time=00:00:00.00 bitrate=N/A speed=   0x    frame=   27 fps=2.3 q=0.0 size=       0kB time=00:00:00.00 bitrate=N/A speed=   0x    frame=   28 fps=2.2 q=0.0 size=       0kB time=00:00:00.00 bitrate=N/A speed=   0x    frame=   29 fps=2.2 q=0.0 size=       0kB time=00:00:00.00 bitrate=N/A speed=   0x    frame=   30 fps=2.2 q=0.0 size=       0kB time=00:00:00.00 bitrate=N/A speed=   0x    frame=   31 fps=2.1 q=0.0 size=       0kB time=00:00:00.00 bitrate=N/A speed=   0x    frame=   32 fps=2.1 q=0.0 size=       0kB time=00:00:00.00 bitrate=N/A speed=   0x    frame=   33 fps=2.1 q=0.0 size=       0kB time=00:00:00.00 bitrate=N/A speed=   0x    frame=   34 fps=2.1 q=0.0 size=       0kB time=00:00:00.00 bitrate=N/A speed=   0x    frame=   35 fps=2.0 q=0.0 size=       0kB time=00:00:00.00 bitrate=N/A speed=   0x    frame=   36 fps=2.0 q=0.0 size=       0kB time=00:00:00.00 bitrate=N/A speed=   0x    frame=   37 fps=2.0 q=0.0 size=       0kB time=00:00:00.00 bitrate=N/A speed=   0x    frame=   38 fps=2.0 q=0.0 size=       0kB time=00:00:00.00 bitrate=N/A speed=   0x    frame=   39 fps=2.0 q=0.0 size=       0kB time=00:00:00.00 bitrate=N/A speed=   0x    frame=   40 fps=2.0 q=0.0 size=       0kB time=00:00:00.00 bitrate=N/A speed=   0x    frame=   41 fps=1.9 q=0.0 size=       0kB time=00:00:00.00 bitrate=N/A speed=   0x    frame=   42 fps=1.9 q=0.0 size=       0kB time=00:00:00.00 bitrate=N/A speed=   0x    frame=   43 fps=1.9 q=0.0 size=       0kB time=00:00:00.00 bitrate=N/A speed=   0x    frame=   44 fps=1.9 q=0.0 size=       0kB time=00:00:00.00 bitrate=N/A speed=   0x    frame=   45 fps=1.9 q=0.0 size=       0kB time=00:00:00.00 bitrate=N/A speed=   0x    frame=   46 fps=1.9 q=0.0 size=       0kB time=00:00:00.00 bitrate=N/A speed=   0x    frame=   47 fps=1.8 q=0.0 size=       0kB time=00:00:00.00 bitrate=N/A speed=   0x    frame=   48 fps=1.8 q=0.0 size=       0kB time=00:00:00.00 bitrate=N/A speed=   0x    frame=   49 fps=1.8 q=0.0 size=       0kB time=00:00:00.00 bitrate=N/A speed=   0x    frame=   50 fps=1.8 q=0.0 size=       0kB time=00:00:00.00 bitrate=N/A speed=   0x    frame=   51 fps=1.8 q=0.0 size=       0kB time=00:00:00.00 bitrate=N/A speed=   0x    frame=   52 fps=1.7 q=0.0 size=       0kB time=00:00:00.00 bitrate=N/A speed=   0x    frame=   53 fps=1.7 q=0.0 size=       0kB time=00:00:00.00 bitrate=N/A speed=   0x    frame=   54 fps=1.7 q=0.0 size=       0kB time=00:00:00.00 bitrate=N/A speed=   0x    frame=   55 fps=1.7 q=0.0 size=       0kB time=00:00:00.00 bitrate=N/A speed=   0x    frame=   56 fps=1.7 q=0.0 size=       0kB time=00:00:00.00 bitrate=N/A speed=   0x    frame=   57 fps=1.7 q=0.0 size=       0kB time=00:00:00.00 bitrate=N/A speed=   0x    frame=   58 fps=1.7 q=0.0 size=       0kB time=00:00:00.00 bitrate=N/A speed=   0x    frame=   59 fps=1.7 q=0.0 size=       0kB time=00:00:00.00 bitrate=N/A speed=   0x    frame=   60 fps=1.7 q=0.0 size=       0kB time=00:00:00.00 bitrate=N/A speed=   0x    frame=   61 fps=1.7 q=0.0 size=       0kB time=00:00:00.00 bitrate=N/A speed=   0x    frame=   62 fps=1.7 q=0.0 size=       0kB time=00:00:00.00 bitrate=N/A speed=   0x    frame=   63 fps=1.7 q=0.0 size=       0kB time=00:00:00.00 bitrate=N/A speed=   0x    frame=   64 fps=1.7 q=0.0 size=       0kB time=00:00:00.00 bitrate=N/A speed=   0x    frame=   65 fps=1.7 q=0.0 size=       0kB time=00:00:00.00 bitrate=N/A speed=   0x    frame=   66 fps=1.7 q=0.0 size=       0kB time=00:00:00.00 bitrate=N/A speed=   0x    frame=   67 fps=1.7 q=0.0 size=       0kB time=00:00:00.00 bitrate=N/A speed=   0x    frame=   68 fps=1.7 q=0.0 size=       0kB time=00:00:00.00 bitrate=N/A speed=   0x    frame=   69 fps=1.7 q=0.0 size=       0kB time=00:00:00.00 bitrate=N/A speed=   0x    frame=   70 fps=1.7 q=0.0 size=       0kB time=00:00:00.00 bitrate=N/A speed=   0x    frame=   71 fps=1.7 q=0.0 size=       0kB time=00:00:00.00 bitrate=N/A speed=   0x    frame=   72 fps=1.2 q=0.0 size=       0kB time=00:00:00.00 bitrate=N/A speed=   0x    frame=   73 fps=1.2 q=0.0 size=       0kB time=00:00:00.00 bitrate=N/A speed=   0x    frame=   76 fps=1.2 q=41.0 size=       1kB time=-00:00:00.08 bitrate=N/A speed=N/A    frame=   77 fps=1.2 q=41.0 size=       1kB time=-00:00:00.04 bitrate=N/A speed=N/A    frame=   79 fps=1.2 q=46.0 size=       1kB time=00:00:00.04 bitrate= 136.9kbits/s speed=0.000678x    frame=   81 fps=1.3 q=52.0 size=       1kB time=00:00:00.12 bitrate=  46.7kbits/s speed=0.00195x    frame=   84 fps=1.3 q=56.0 size=       1kB time=00:00:00.25 bitrate=  23.5kbits/s speed=0.00381x    frame=   85 fps=1.3 q=55.0 size=       1kB time=00:00:00.29 bitrate=  20.1kbits/s speed=0.00442x    frame=   87 fps=1.3 q=56.0 size=       1kB time=00:00:00.37 bitrate=  15.7kbits/s speed=0.00559x    frame=   89 fps=1.3 q=56.0 size=       1kB time=00:00:00.45 bitrate=  12.8kbits/s speed=0.00665x    frame=   90 fps=1.3 q=57.0 size=       1kB time=00:00:00.50 bitrate=  11.8kbits/s speed=0.00716x    frame=   91 fps=1.3 q=57.0 size=       1kB time=00:00:00.54 bitrate=  10.8kbits/s speed=0.0077x    frame=   92 fps=1.3 q=58.0 size=       1kB time=00:00:00.58 bitrate=  10.1kbits/s speed=0.00812x    frame=   93 fps=1.3 q=58.0 size=       1kB time=00:00:00.62 bitrate=   9.4kbits/s speed=0.00857x    frame=   95 fps=1.3 q=58.0 size=       1kB time=00:00:00.70 bitrate=   8.3kbits/s speed=0.00952x    frame=   96 fps=1.3 q=58.0 size=       1kB time=00:00:00.75 bitrate=   7.8kbits/s speed=0.00986x    frame=   97 fps=1.3 q=59.0 size=       1kB time=00:00:00.79 bitrate=   7.4kbits/s speed=0.0103x    frame=   98 fps=1.3 q=59.0 size=       1kB time=00:00:00.83 bitrate=   7.1kbits/s speed=0.0106x    frame=   99 fps=1.2 q=59.0 size=       1kB time=00:00:00.87 bitrate=   6.7kbits/s speed=0.011x    frame=  100 fps=1.2 q=59.0 size=       1kB time=00:00:00.91 bitrate=   6.4kbits/s speed=0.0114x    frame=  101 fps=1.2 q=59.0 size=       1kB time=00:00:00.95 bitrate=   6.1kbits/s speed=0.0119x    frame=  103 fps=1.3 q=59.0 size=       1kB time=00:00:01.04 bitrate=   5.6kbits/s speed=0.0127x    frame=  104 fps=1.2 q=59.0 size=       1kB time=00:00:01.08 bitrate=   5.4kbits/s speed=0.013x    frame=  106 fps=1.2 q=59.0 size=       1kB time=00:00:01.16 bitrate=   5.0kbits/s speed=0.0137x    frame=  107 fps=1.2 q=60.0 size=       1kB time=00:00:01.20 bitrate=   4.9kbits/s speed=0.014x    frame=  108 fps=1.2 q=60.0 size=       1kB time=00:00:01.25 bitrate=   4.7kbits/s speed=0.0144x    frame=  110 fps=1.2 q=60.0 size=       1kB time=00:00:01.33 bitrate=   4.4kbits/s speed=0.0151x    frame=  111 fps=1.2 q=60.0 size=       1kB time=00:00:01.37 bitrate=   4.3kbits/s speed=0.0155x    frame=  112 fps=1.2 q=60.0 size=       1kB time=00:00:01.41 bitrate=   4.2kbits/s speed=0.0158x    frame=  113 fps=1.2 q=60.0 size=       1kB time=00:00:01.45 bitrate=   4.0kbits/s speed=0.016x    frame=  114 fps=1.2 q=60.0 size=       1kB time=00:00:01.50 bitrate=   3.9kbits/s speed=0.0163x    frame=  115 fps=1.2 q=60.0 size=       1kB time=00:00:01.54 bitrate=   3.8kbits/s speed=0.0166x    frame=  116 fps=1.2 q=60.0 size=       1kB time=00:00:01.58 bitrate=   3.7kbits/s speed=0.0169x    frame=  118 fps=1.3 q=60.0 size=       1kB time=00:00:01.66 bitrate=   3.5kbits/s speed=0.0177x    frame=  119 fps=1.3 q=60.0 size=       1kB time=00:00:01.70 bitrate=   3.4kbits/s speed=0.018x    frame=  120 fps=1.3 q=60.0 size=       1kB time=00:00:01.75 bitrate=   3.4kbits/s speed=0.0183x    frame=  121 fps=1.3 q=60.0 size=       1kB time=00:00:01.79 bitrate=   3.3kbits/s speed=0.0186x    frame=  122 fps=1.3 q=60.0 size=       1kB time=00:00:01.83 bitrate=   3.2kbits/s speed=0.0188x    frame=  123 fps=1.3 q=60.0 size=       1kB time=00:00:01.87 bitrate=   3.1kbits/s speed=0.0191x    frame=  124 fps=1.2 q=60.0 size=       1kB time=00:00:01.91 bitrate=   3.1kbits/s speed=0.0193x    frame=  125 fps=1.2 q=60.0 size=       1kB time=00:00:01.95 bitrate=   3.0kbits/s speed=0.0195x    frame=  127 fps=1.3 q=60.0 size=       1kB time=00:00:02.04 bitrate=   2.9kbits/s speed=0.0202x    frame=  128 fps=1.2 q=60.0 size=       1kB time=00:00:02.08 bitrate=   2.8kbits/s speed=0.0203x    frame=  129 fps=1.2 q=61.0 size=       1kB time=00:00:02.12 bitrate=   2.8kbits/s speed=0.0206x    frame=  130 fps=1.2 q=61.0 size=       1kB time=00:00:02.16 bitrate=   2.7kbits/s speed=0.0208x    frame=  131 fps=1.2 q=61.0 size=       1kB time=00:00:02.20 bitrate=   2.7kbits/s speed=0.021x    frame=  132 fps=1.2 q=61.0 size=       1kB time=00:00:02.25 bitrate=   2.6kbits/s speed=0.0212x    frame=  133 fps=1.2 q=61.0 size=       1kB time=00:00:02.29 bitrate=   2.6kbits/s speed=0.0215x    frame=  134 fps=1.2 q=61.0 size=       1kB time=00:00:02.33 bitrate=   2.5kbits/s speed=0.0215x    frame=  135 fps=1.2 q=61.0 size=       1kB time=00:00:02.37 bitrate=   2.5kbits/s speed=0.0218x    frame=  137 fps=1.2 q=61.0 size=       1kB time=00:00:02.45 bitrate=   2.4kbits/s speed=0.0222x    frame=  138 fps=1.2 q=61.0 size=       1kB time=00:00:02.50 bitrate=   2.4kbits/s speed=0.0224x    frame=  139 fps=1.2 q=61.0 size=       1kB time=00:00:02.54 bitrate=   2.3kbits/s speed=0.0226x    frame=  140 fps=1.2 q=61.0 size=       1kB time=00:00:02.58 bitrate=   2.3kbits/s speed=0.0227x    frame=  141 fps=1.2 q=61.0 size=       1kB time=00:00:02.62 bitrate=   2.2kbits/s speed=0.0229x    frame=  142 fps=1.2 q=61.0 size=       1kB time=00:00:02.66 bitrate=   2.2kbits/s speed=0.0228x    frame=  144 fps=1.2 q=61.0 size=       1kB time=00:00:02.75 bitrate=   2.1kbits/s speed=0.0234x    frame=  146 fps=1.2 q=61.0 size=       1kB time=00:00:02.83 bitrate=   2.1kbits/s speed=0.024x    frame=  147 fps=1.2 q=62.0 size=       1kB time=00:00:02.87 bitrate=   2.0kbits/s speed=0.0242x    frame=  148 fps=1.2 q=62.0 size=       1kB time=00:00:02.91 bitrate=   2.0kbits/s speed=0.024x    frame=  149 fps=1.2 q=62.0 size=       1kB time=00:00:02.95 bitrate=   2.0kbits/s speed=0.0242x    frame=  150 fps=1.2 q=62.0 size=       1kB time=00:00:03.00 bitrate=   2.0kbits/s speed=0.0243x    frame=  151 fps=1.2 q=62.0 size=       1kB time=00:00:03.04 bitrate=   1.9kbits/s speed=0.0245x    frame=  152 fps=1.2 q=62.0 size=       1kB time=00:00:03.08 bitrate=   1.9kbits/s speed=0.0247x    frame=  153 fps=1.2 q=62.0 size=       1kB time=00:00:03.12 bitrate=   1.9kbits/s speed=0.0249x    frame=  155 fps=1.2 q=62.0 size=       1kB time=00:00:03.20 bitrate=   1.8kbits/s speed=0.0251x    frame=  156 fps=1.2 q=62.0 size=       1kB time=00:00:03.25 bitrate=   1.8kbits/s speed=0.0252x    frame=  157 fps=1.2 q=62.0 size=       1kB time=00:00:03.29 bitrate=   1.8kbits/s speed=0.0253x    frame=  158 fps=1.2 q=62.0 size=       1kB time=00:00:03.33 bitrate=   1.8kbits/s speed=0.0255x    frame=  159 fps=1.2 q=62.0 size=       1kB time=00:00:03.37 bitrate=   1.7kbits/s speed=0.0257x    frame=  160 fps=1.2 q=62.0 size=       1kB time=00:00:03.41 bitrate=   1.7kbits/s speed=0.0259x    frame=  162 fps=1.2 q=62.0 size=       1kB time=00:00:03.50 bitrate=   1.7kbits/s speed=0.0261x    frame=  163 fps=1.2 q=62.0 size=       1kB time=00:00:03.54 bitrate=   1.7kbits/s speed=0.0262x    frame=  164 fps=1.2 q=62.0 size=       1kB time=00:00:03.58 bitrate=   1.6kbits/s speed=0.0261x    frame=  166 fps=1.2 q=62.0 size=       1kB time=00:00:03.66 bitrate=   1.6kbits/s speed=0.0265x    frame=  167 fps=1.2 q=62.0 size=       1kB time=00:00:03.70 bitrate=   1.6kbits/s speed=0.0267x    frame=  169 fps=1.2 q=62.0 size=       1kB time=00:00:03.79 bitrate=   1.6kbits/s speed=0.0271x    frame=  170 fps=1.2 q=62.0 size=       1kB time=00:00:03.83 bitrate=   1.5kbits/s speed=0.027x    frame=  171 fps=1.2 q=62.0 size=       1kB time=00:00:03.87 bitrate=   1.5kbits/s speed=0.0272x    frame=  172 fps=1.2 q=62.0 size=       1kB time=00:00:03.91 bitrate=   1.5kbits/s speed=0.0273x    frame=  174 fps=1.2 q=62.0 size=       1kB time=00:00:04.00 bitrate=   1.5kbits/s speed=0.0277x    frame=  175 fps=1.2 q=62.0 size=       1kB time=00:00:04.04 bitrate=   1.5kbits/s speed=0.0278x    frame=  176 fps=1.2 q=62.0 size=       1kB time=00:00:04.08 bitrate=   1.4kbits/s speed=0.0279x    frame=  177 fps=1.2 q=62.0 size=       1kB time=00:00:04.12 bitrate=   1.4kbits/s speed=0.0281x    frame=  178 fps=1.2 q=62.0 size=       1kB time=00:00:04.16 bitrate=   1.4kbits/s speed=0.0282x    frame=  181 fps=1.2 q=62.0 size=       1kB time=00:00:04.29 bitrate=   1.4kbits/s speed=0.029x    frame=  182 fps=1.2 q=62.0 size=       1kB time=00:00:04.33 bitrate=   1.4kbits/s speed=0.0288x    frame=  185 fps=1.2 q=62.0 size=       1kB time=00:00:04.45 bitrate=   1.3kbits/s speed=0.0295x    frame=  188 fps=1.2 q=62.0 size=       1kB time=00:00:04.58 bitrate=   1.3kbits/s speed=0.0298x    frame=  189 fps=1.2 q=62.0 size=       1kB time=00:00:04.62 bitrate=   1.3kbits/s speed=0.03x    frame=  191 fps=1.2 q=62.0 size=       1kB time=00:00:04.70 bitrate=   1.3kbits/s speed=0.0304x    frame=  192 fps=1.2 q=62.0 size=       1kB time=00:00:04.75 bitrate=   1.2kbits/s speed=0.0301x    frame=  196 fps=1.2 q=62.0 size=    1113kB time=00:00:04.91 bitrate=1854.3kbits/s speed=0.0311x    frame=  199 fps=1.2 q=62.0 size=    1113kB time=00:00:05.04 bitrate=1808.3kbits/s speed=0.0313x    frame=  200 fps=1.2 q=62.0 size=    1113kB time=00:00:05.08 bitrate=1793.7kbits/s speed=0.0314x    frame=  201 fps=1.2 q=62.0 size=    1113kB time=00:00:05.12 bitrate=1779.0kbits/s speed=0.0315x    frame=  202 fps=1.2 q=62.0 size=    1113kB time=00:00:05.16 bitrate=1764.6kbits/s speed=0.0316x    frame=  203 fps=1.2 q=62.0 size=    1113kB time=00:00:05.20 bitrate=1750.7kbits/s speed=0.0316x    frame=  204 fps=1.2 q=62.0 size=    1113kB time=00:00:05.25 bitrate=1736.7kbits/s speed=0.0318x    frame=  205 fps=1.2 q=62.0 size=    1113kB time=00:00:05.29 bitrate=1722.9kbits/s speed=0.0318x    frame=  206 fps=1.2 q=62.0 size=    1113kB time=00:00:05.33 bitrate=1709.7kbits/s speed=0.0319x    frame=  207 fps=1.2 q=62.0 size=    1113kB time=00:00:05.37 bitrate=1696.3kbits/s speed=0.0321x    frame=  208 fps=1.2 q=63.0 size=    1113kB time=00:00:05.41 bitrate=1683.1kbits/s speed=0.0321x    frame=  209 fps=1.2 q=63.0 size=    1113kB time=00:00:05.45 bitrate=1670.5kbits/s speed=0.0321x    frame=  210 fps=1.2 q=63.0 size=    1113kB time=00:00:05.50 bitrate=1657.7kbits/s speed=0.0323x    frame=  211 fps=1.2 q=63.0 size=    1113kB time=00:00:05.54 bitrate=1645.2kbits/s speed=0.0323x    frame=  212 fps=1.2 q=63.0 size=    1113kB time=00:00:05.58 bitrate=1633.1kbits/s speed=0.0323x    frame=  213 fps=1.2 q=63.0 size=    1113kB time=00:00:05.62 bitrate=1620.9kbits/s speed=0.0325x    frame=  215 fps=1.2 q=63.0 size=    1113kB time=00:00:05.70 bitrate=1597.4kbits/s speed=0.0328x    frame=  216 fps=1.2 q=63.0 size=    1113kB time=00:00:05.75 bitrate=1585.7kbits/s speed=0.0329x    frame=  217 fps=1.2 q=63.0 size=    1113kB time=00:00:05.79 bitrate=1574.2kbits/s speed=0.033x    frame=  219 fps=1.2 q=63.0 size=    1113kB time=00:00:05.87 bitrate=1552.0kbits/s speed=0.0331x    frame=  220 fps=1.2 q=63.0 size=    1113kB time=00:00:05.91 bitrate=1540.9kbits/s speed=0.0332x    frame=  221 fps=1.2 q=63.0 size=    1113kB time=00:00:05.95 bitrate=1530.3kbits/s speed=0.0333x    frame=  223 fps=1.2 q=63.0 size=    1113kB time=00:00:06.04 bitrate=1509.1kbits/s speed=0.0336x    frame=  224 fps=1.2 q=63.0 size=    1113kB time=00:00:06.08 bitrate=1498.9kbits/s speed=0.0337x    frame=  226 fps=1.2 q=63.0 size=    1113kB time=00:00:06.16 bitrate=1478.5kbits/s speed=0.034x    frame=  227 fps=1.2 q=63.0 size=    1113kB time=00:00:06.20 bitrate=1468.7kbits/s speed=0.034x    frame=  229 fps=1.3 q=63.0 size=    1113kB time=00:00:06.29 bitrate=1449.1kbits/s speed=0.0344x    frame=  233 fps=1.2 q=63.0 size=    1113kB time=00:00:06.45 bitrate=1411.9kbits/s speed=0.0344x    frame=  235 fps=1.2 q=63.0 size=    1113kB time=00:00:06.54 bitrate=1393.7kbits/s speed=0.0346x    frame=  236 fps=1.2 q=63.0 size=    1113kB time=00:00:06.58 bitrate=1385.1kbits/s speed=0.0347x    frame=  238 fps=1.2 q=63.0 size=    1113kB time=00:00:06.66 bitrate=1367.6kbits/s speed=0.035x    frame=  239 fps=1.2 q=63.0 size=    1113kB time=00:00:06.70 bitrate=1359.3kbits/s speed=0.0349x    frame=  240 fps=1.2 q=63.0 size=    1113kB time=00:00:06.75 bitrate=1350.8kbits/s speed=0.035x    frame=  241 fps=1.2 q=64.0 size=    1113kB time=00:00:06.79 bitrate=1342.5kbits/s speed=0.0351x    frame=  242 fps=1.2 q=64.0 size=    1113kB time=00:00:06.83 bitrate=1334.4kbits/s speed=0.0351x    frame=  243 fps=1.2 q=64.0 size=    1113kB time=00:00:06.87 bitrate=1326.2kbits/s speed=0.0352x    frame=  245 fps=1.2 q=64.0 size=    1113kB time=00:00:06.95 bitrate=1310.4kbits/s speed=0.0355x    frame=  246 fps=1.2 q=64.0 size=    1113kB time=00:00:07.00 bitrate=1302.6kbits/s speed=0.0355x    frame=  247 fps=1.2 q=64.0 size=    1113kB time=00:00:07.04 bitrate=1294.8kbits/s speed=0.0355x    frame=  249 fps=1.3 q=64.0 size=    1113kB time=00:00:07.12 bitrate=1279.7kbits/s speed=0.0358x    frame=  250 fps=1.2 q=64.0 size=    1113kB time=00:00:07.16 bitrate=1272.2kbits/s speed=0.0358x    frame=  251 fps=1.2 q=64.0 size=    1113kB time=00:00:07.20 bitrate=1265.0kbits/s speed=0.0358x    frame=  252 fps=1.2 q=64.0 size=    1113kB time=00:00:07.25 bitrate=1257.7kbits/s speed=0.0359x    frame=  253 fps=1.2 q=64.0 size=    1113kB time=00:00:07.29 bitrate=1250.4kbits/s speed=0.0359x    frame=  255 fps=1.3 q=64.0 size=    1113kB time=00:00:07.37 bitrate=1236.3kbits/s speed=0.0362x    frame=  256 fps=1.3 q=64.0 size=    1113kB time=00:00:07.41 bitrate=1229.3kbits/s speed=0.0363x    frame=  258 fps=1.3 q=64.0 size=    1113kB time=00:00:07.50 bitrate=1215.7kbits/s speed=0.0366x    frame=  259 fps=1.3 q=64.0 size=    1113kB time=00:00:07.54 bitrate=1209.0kbits/s speed=0.0366x    frame=  260 fps=1.2 q=64.0 size=    1113kB time=00:00:07.58 bitrate=1202.4kbits/s speed=0.0365x    frame=  263 fps=1.3 q=64.0 size=    1113kB time=00:00:07.70 bitrate=1182.9kbits/s speed=0.0369x    frame=  267 fps=1.3 q=63.0 size=    1113kB time=00:00:07.87 bitrate=1157.9kbits/s speed=0.0373x    frame=  270 fps=1.3 q=63.0 size=    1113kB time=00:00:08.00 bitrate=1139.8kbits/s speed=0.0378x    frame=  272 fps=1.3 q=63.0 size=    1113kB time=00:00:08.08 bitrate=1128.1kbits/s speed=0.0381x    frame=  273 fps=1.3 q=63.0 size=    1113kB time=00:00:08.12 bitrate=1122.2kbits/s speed=0.038x    frame=  274 fps=1.3 q=63.0 size=    1113kB time=00:00:08.16 bitrate=1116.5kbits/s speed=0.038x    frame=  276 fps=1.3 q=63.0 size=    1113kB time=00:00:08.25 bitrate=1105.2kbits/s speed=0.0381x    frame=  277 fps=1.3 q=63.0 size=    1113kB time=00:00:08.29 bitrate=1099.6kbits/s speed=0.0382x    frame=  278 fps=1.3 q=63.0 size=    1113kB time=00:00:08.33 bitrate=1094.2kbits/s speed=0.0382x    frame=  279 fps=1.3 q=63.0 size=    1113kB time=00:00:08.37 bitrate=1088.7kbits/s speed=0.0383x    frame=  281 fps=1.3 q=63.0 size=    1113kB time=00:00:08.45 bitrate=1078.1kbits/s speed=0.0385x    frame=  282 fps=1.3 q=63.0 size=    1113kB time=00:00:08.50 bitrate=1072.7kbits/s speed=0.0386x    frame=  283 fps=1.3 q=63.0 size=    1113kB time=00:00:08.54 bitrate=1067.5kbits/s speed=0.0387x    frame=  284 fps=1.3 q=63.0 size=    1113kB time=00:00:08.58 bitrate=1062.4kbits/s speed=0.0387x    frame=  286 fps=1.3 q=63.0 size=    1113kB time=00:00:08.66 bitrate=1052.1kbits/s speed=0.039x    frame=  287 fps=1.3 q=63.0 size=    1113kB time=00:00:08.70 bitrate=1047.1kbits/s speed=0.0391x    frame=  288 fps=1.3 q=63.0 size=    1113kB time=00:00:08.75 bitrate=1042.1kbits/s speed=0.0391x    frame=  289 fps=1.3 q=63.0 size=    1113kB time=00:00:08.79 bitrate=1037.1kbits/s speed=0.0392x    frame=  292 fps=1.3 q=63.0 size=    1113kB time=00:00:08.91 bitrate=1022.6kbits/s speed=0.0396x    frame=  295 fps=1.3 q=63.0 size=    1113kB time=00:00:09.04 bitrate=1008.4kbits/s speed=0.0399x    frame=  298 fps=1.3 q=63.0 size=    1113kB time=00:00:09.16 bitrate= 994.7kbits/s speed=0.0402x    frame=  302 fps=1.3 q=63.0 size=    1113kB time=00:00:09.33 bitrate= 977.0kbits/s speed=0.0407x    frame=  308 fps=1.3 q=63.0 size=    1113kB time=00:00:09.58 bitrate= 951.5kbits/s speed=0.0414x    frame=  309 fps=1.3 q=62.0 size=    1113kB time=00:00:09.62 bitrate= 947.4kbits/s speed=0.0414x    frame=  312 fps=1.3 q=62.0 size=    1113kB time=00:00:09.75 bitrate= 935.2kbits/s speed=0.0417x    frame=  315 fps=1.3 q=62.0 size=    1113kB time=00:00:09.87 bitrate= 923.4kbits/s speed=0.0419x    frame=  318 fps=1.3 q=62.0 size=    1987kB time=00:00:10.00 bitrate=1627.2kbits/s speed=0.0423x    frame=  319 fps=1.3 q=62.0 size=    1987kB time=00:00:10.04 bitrate=1620.4kbits/s speed=0.0422x    frame=  320 fps=1.3 q=62.0 size=    1987kB time=00:00:10.08 bitrate=1613.8kbits/s speed=0.0423x    frame=  321 fps=1.3 q=60.0 size=    1987kB time=00:00:10.12 bitrate=1607.1kbits/s speed=0.0423x    frame=  324 fps=1.3 q=62.0 size=    1987kB time=00:00:10.25 bitrate=1587.5kbits/s speed=0.0426x    frame=  332 fps=1.4 q=62.0 size=    2037kB time=00:00:10.58 bitrate=1576.7kbits/s speed=0.0438x    frame=  334 fps=1.4 q=62.0 size=    2037kB time=00:00:10.66 bitrate=1564.3kbits/s speed=0.044x    frame=  339 fps=1.4 q=62.0 size=    2037kB time=00:00:10.87 bitrate=1534.4kbits/s speed=0.0447x    frame=  343 fps=1.4 q=62.0 size=    2037kB time=00:00:11.04 bitrate=1511.1kbits/s speed=0.0452x    frame=  346 fps=1.4 q=62.0 size=    2037kB time=00:00:11.16 bitrate=1494.2kbits/s speed=0.0455x    frame=  349 fps=1.4 q=62.0 size=    2037kB time=00:00:11.29 bitrate=1477.7kbits/s speed=0.0458x    frame=  353 fps=1.4 q=61.0 size=    2037kB time=00:00:11.45 bitrate=1456.3kbits/s speed=0.0462x    frame=  357 fps=1.4 q=61.0 size=    2037kB time=00:00:11.62 bitrate=1435.4kbits/s speed=0.0467x    frame=  360 fps=1.4 q=61.0 size=    2037kB time=00:00:11.75 bitrate=1420.1kbits/s speed=0.0469x    frame=  363 fps=1.4 q=61.0 size=    2037kB time=00:00:11.87 bitrate=1405.2kbits/s speed=0.0473x    frame=  366 fps=1.5 q=60.0 size=    2037kB time=00:00:12.00 bitrate=1390.5kbits/s speed=0.0477x    frame=  368 fps=1.5 q=61.0 size=    2037kB time=00:00:12.08 bitrate=1381.0kbits/s speed=0.0478x    frame=  372 fps=1.5 q=60.0 size=    2037kB time=00:00:12.25 bitrate=1362.1kbits/s speed=0.0483x    frame=  376 fps=1.5 q=60.0 size=    2037kB time=00:00:12.41 bitrate=1343.8kbits/s speed=0.0488x    frame=  382 fps=1.5 q=59.0 size=    2037kB time=00:00:12.66 bitrate=1317.3kbits/s speed=0.0495x    frame=  385 fps=1.5 q=60.0 size=    2037kB time=00:00:12.79 bitrate=1304.4kbits/s speed=0.0499x    frame=  388 fps=1.5 q=59.0 size=    2037kB time=00:00:12.91 bitrate=1291.8kbits/s speed=0.0501x    frame=  393 fps=1.5 q=59.0 size=    2037kB time=00:00:13.12 bitrate=1271.3kbits/s speed=0.0506x    frame=  394 fps=1.5 q=59.0 size=    2037kB time=00:00:13.16 bitrate=1267.3kbits/s speed=0.0507x    frame=  399 fps=1.5 q=59.0 size=    2037kB time=00:00:13.37 bitrate=1247.6kbits/s speed=0.0511x    frame=  403 fps=1.5 q=58.0 size=    2037kB time=00:00:13.54 bitrate=1232.2kbits/s speed=0.0515x    frame=  408 fps=1.5 q=58.0 size=    2037kB time=00:00:13.75 bitrate=1213.6kbits/s speed=0.052x    frame=  413 fps=1.6 q=57.0 size=    2037kB time=00:00:13.95 bitrate=1195.5kbits/s speed=0.0525x    frame=  414 fps=1.6 q=58.0 size=    2037kB time=00:00:14.00 bitrate=1191.9kbits/s speed=0.0525x    frame=  419 fps=1.6 q=57.0 size=    2037kB time=00:00:14.20 bitrate=1174.4kbits/s speed=0.0531x    frame=  420 fps=1.6 q=57.0 size=    2037kB time=00:00:14.25 bitrate=1171.0kbits/s speed=0.053x    frame=  425 fps=1.6 q=57.0 size=    2037kB time=00:00:14.45 bitrate=1154.1kbits/s speed=0.0535x    frame=  430 fps=1.6 q=56.0 size=    2037kB time=00:00:14.66 bitrate=1137.7kbits/s speed=0.054x    frame=  431 fps=1.6 q=57.0 size=    2037kB time=00:00:14.70 bitrate=1134.5kbits/s speed=0.054x    frame=  434 fps=1.6 q=56.0 size=    2037kB time=00:00:14.83 bitrate=1125.0kbits/s speed=0.0543x    frame=  437 fps=1.6 q=56.0 size=    2037kB time=00:00:14.95 bitrate=1115.6kbits/s speed=0.0545x    frame=  439 fps=1.6 q=56.0 size=    2037kB time=00:00:15.04 bitrate=1109.3kbits/s speed=0.0542x    frame=  442 fps=1.6 q=56.0 size=    2037kB time=00:00:15.16 bitrate=1100.2kbits/s speed=0.0545x    frame=  446 fps=1.6 q=56.0 size=    2357kB time=00:00:15.33 bitrate=1259.3kbits/s speed=0.0547x    frame=  450 fps=1.6 q=56.0 size=    2357kB time=00:00:15.50 bitrate=1245.7kbits/s speed=0.0552x    frame=  452 fps=1.6 q=56.0 size=    2357kB time=00:00:15.58 bitrate=1239.1kbits/s speed=0.0551x    frame=  456 fps=1.6 q=55.0 size=    2357kB time=00:00:15.75 bitrate=1225.9kbits/s speed=0.0556x    frame=  459 fps=1.6 q=55.0 size=    2357kB time=00:00:15.87 bitrate=1216.3kbits/s speed=0.0557x    frame=  464 fps=1.6 q=55.0 size=    2357kB time=00:00:16.08 bitrate=1200.5kbits/s speed=0.0562x    frame=  465 fps=1.6 q=55.0 size=    2357kB time=00:00:16.12 bitrate=1197.4kbits/s speed=0.0562x    frame=  468 fps=1.6 q=55.0 size=    2357kB time=00:00:16.25 bitrate=1188.2kbits/s speed=0.0562x    frame=  471 fps=1.6 q=55.0 size=    2357kB time=00:00:16.37 bitrate=1179.1kbits/s speed=0.0564x    frame=  473 fps=1.6 q=55.0 size=    2357kB time=00:00:16.45 bitrate=1173.2kbits/s speed=0.0566x    frame=  475 fps=1.6 q=55.0 size=    2357kB time=00:00:16.54 bitrate=1167.2kbits/s speed=0.0567x    frame=  476 fps=1.6 q=55.0 size=    2357kB time=00:00:16.58 bitrate=1164.3kbits/s speed=0.0566x    frame=  481 fps=1.6 q=55.0 size=    2357kB time=00:00:16.79 bitrate=1149.8kbits/s speed=0.0572x    frame=  482 fps=1.6 q=55.0 size=    2357kB time=00:00:16.83 bitrate=1147.0kbits/s speed=0.057x    frame=  483 fps=1.6 q=54.0 size=    2357kB time=00:00:16.87 bitrate=1144.2kbits/s speed=0.057x    frame=  486 fps=1.6 q=55.0 size=    2357kB time=00:00:17.00 bitrate=1135.8kbits/s speed=0.0573x    frame=  489 fps=1.6 q=54.0 size=    2357kB time=00:00:17.12 bitrate=1127.5kbits/s speed=0.0574x    frame=  494 fps=1.6 q=54.0 size=    2357kB time=00:00:17.33 bitrate=1114.0kbits/s speed=0.0574x    frame=  497 fps=1.6 q=54.0 size=    2357kB time=00:00:17.45 bitrate=1106.0kbits/s speed=0.0577x    frame=  499 fps=1.6 q=54.0 size=    2357kB time=00:00:17.54 bitrate=1100.7kbits/s speed=0.0578x    frame=  500 fps=1.6 q=54.0 size=    2357kB time=00:00:17.58 bitrate=1098.1kbits/s speed=0.0578x    frame=  500 fps=1.5 q=-1.0 Lsize=    2925kB time=00:00:20.70 bitrate=1157.1kbits/s speed=0.0635x    
video:2921kB audio:0kB subtitle:0kB other streams:0kB global headers:0kB muxing overhead: 0.147711%
bench: utime=1016.716s
bench: maxrss=2814608kB
[libx264 @ 0x3f6d1c0] frame I:3     Avg QP:45.04  size: 24661
[libx264 @ 0x3f6d1c0] frame P:268   Avg QP:50.34  size:  8952
[libx264 @ 0x3f6d1c0] frame B:229   Avg QP:49.57  size:  2259
[libx264 @ 0x3f6d1c0] consecutive B-frames: 36.2%  7.6% 18.0% 17.6% 11.0%  9.6%  0.0%  0.0%  0.0%
[libx264 @ 0x3f6d1c0] mb I  I16..4: 27.5% 72.2%  0.3%
[libx264 @ 0x3f6d1c0] mb P  I16..4: 11.7% 29.3%  0.0%  P16..4:  7.0%  0.0%  0.0%  0.0%  0.0%    skip:52.0%
[libx264 @ 0x3f6d1c0] mb B  I16..4:  0.2%  0.3%  0.0%  B16..8:  6.6%  0.1%  0.0%  direct: 0.0%  skip:92.9%  L0:48.7% L1:51.0% BI: 0.3%
[libx264 @ 0x3f6d1c0] final ratefactor: 52.16
[libx264 @ 0x3f6d1c0] 8x8 transform intra:71.4% inter:92.7%
[libx264 @ 0x3f6d1c0] direct mvs  spatial:99.1% temporal:0.9%
[libx264 @ 0x3f6d1c0] coded y,uvDC,uvAC intra: 1.7% 8.8% 0.0% inter: 0.1% 0.4% 0.0%
[libx264 @ 0x3f6d1c0] i16 v,h,dc,p: 79% 16%  1%  3%
[libx264 @ 0x3f6d1c0] i8 v,h,dc,ddl,ddr,vr,hd,vl,hu:  6%  4% 89%  0%  0%  0%  0%  0%  0%
[libx264 @ 0x3f6d1c0] i4 v,h,dc,ddl,ddr,vr,hd,vl,hu: 23%  9% 11% 14% 12%  8%  8%  5%  9%
[libx264 @ 0x3f6d1c0] i8c dc,h,v,p: 99%  1%  0%  0%
[libx264 @ 0x3f6d1c0] Weighted P-Frames: Y:1.5% UV:1.1%
[libx264 @ 0x3f6d1c0] ref P L0: 27.5%  0.6% 21.2%  7.9%  7.3%  6.8%  7.1%  2.6%  2.7%  2.6%  2.5%  2.4%  2.4%  2.4%  2.7%  1.3%
[libx264 @ 0x3f6d1c0] ref B L0: 67.0% 11.2%  7.2%  2.9%  2.4%  1.9%  1.9%  0.7%  0.8%  0.7%  0.7%  0.8%  0.8%  0.7%  0.3%
[libx264 @ 0x3f6d1c0] ref B L1: 94.8%  5.2%
[libx264 @ 0x3f6d1c0] kb/s:1148.27
